#!OML:ASF C:\Vicon Data\Big\jianyuan-11\jianyuan\Session 1\male.ASF
:FULLY-SPECIFIED
:DEGREES
1
root -7.733500 16.142600 -23.999400 -5.763090 8.678960 15.866818
lowerback 2.310350 -1.035420 -11.315800 
upperback 6.328140 -0.609075 -2.525990 
thorax 5.541450 -0.557649 3.665390 
lowerneck -8.153990 -12.908700 -15.009700 
upperneck 21.592500 -17.949400 14.246600 
head 11.037100 -7.882020 5.139870 
rclavicle 0.000000 0.000000 
rhumerus -51.141300 -33.218400 -66.631800 
rradius 34.765200 
rwrist -1.924950 
rhand -18.995400 -1.644700 
rfingers 0.000000 
rthumb 7.309570 -31.498400 
lclavicle 0.000000 0.000000 
lhumerus -5.582720 -4.491900 92.132200 
lradius 59.850800 
lwrist -4.695740 
lhand -13.739400 -9.861050 
lfingers 0.000000 
lthumb 12.380400 19.752300 
rfemur -25.971100 -4.286580 14.828700 
rtibia 32.330800 
rfoot -14.682800 -16.913800 
rtoes 28.976300 
lfemur 20.764800 6.307020 -26.217300 
ltibia 21.672800 
lfoot -7.574180 10.016600 
ltoes -20.964600 
2
root -7.753592 16.132218 -23.799997 -5.977027 8.210291 15.741684
lowerback 2.080965 -0.890705 -11.153618 
upperback 6.303658 -0.400847 -2.510574 
thorax 5.607932 -0.454954 3.596874 
lowerneck -8.037568 -12.917139 -15.056673 
upperneck 21.734772 -17.964885 14.236105 
head 11.074380 -7.888914 5.150860 
rclavicle 0.000000 0.000000 
rhumerus -51.251107 -33.157546 -66.643633 
rradius 34.689818 
rwrist -2.098055 
rhand -19.019600 -1.556267 
rfingers 0.000000 
rthumb 7.286248 -31.410750 
lclavicle 0.000000 0.000000 
lhumerus -5.944308 -4.676247 92.080245 
lradius 60.010168 
lwrist -4.951811 
lhand -13.580194 -9.973684 
lfingers 0.000000 
lthumb 12.533901 19.630373 
rfemur -25.493884 -5.250601 15.569841 
rtibia 32.678393 
rfoot -14.338277 -17.646234 
rtoes 28.219832 
lfemur 19.999624 6.912909 -25.463351 
ltibia 24.580150 
lfoot -6.157310 10.029377 
ltoes -20.470818 
3
root -7.764500 16.131772 -23.701338 -6.033064 7.938776 15.642013
lowerback 1.929583 -0.819356 -10.989913 
upperback 6.266270 -0.300814 -2.507932 
thorax 5.632748 -0.402040 3.511905 
lowerneck -7.933432 -12.908917 -15.095924 
upperneck 21.777381 -17.960191 14.256775 
head 11.075938 -7.888492 5.172764 
rclavicle 0.000000 0.000000 
rhumerus -51.317032 -33.125296 -66.682103 
rradius 34.682881 
rwrist -2.150634 
rhand -18.873958 -1.453344 
rfingers 0.000000 
rthumb 7.426849 -31.302979 
lclavicle 0.000000 0.000000 
lhumerus -6.163641 -4.745632 92.044257 
lradius 60.092552 
lwrist -5.111600 
lhand -13.453597 -10.011246 
lfingers 0.000000 
lthumb 12.655928 19.585327 
rfemur -25.405360 -5.769616 16.027721 
rtibia 32.891792 
rfoot -14.055580 -18.089096 
rtoes 26.618517 
lfemur 19.498553 7.236455 -25.041919 
ltibia 26.003008 
lfoot -5.488558 10.213296 
ltoes -18.453703 
4
root -7.776159 16.130060 -23.601908 -6.134511 7.649628 15.507695
lowerback 1.831482 -0.719062 -10.794156 
upperback 6.231678 -0.169518 -2.501553 
thorax 5.624971 -0.330371 3.414852 
lowerneck -7.814184 -12.909770 -15.057860 
upperneck 21.787197 -17.972520 14.248234 
head 11.053525 -7.894057 5.169269 
rclavicle 0.000000 0.000000 
rhumerus -51.403773 -33.142126 -66.703044 
rradius 34.628431 
rwrist -2.034073 
rhand -18.830881 -1.342352 
rfingers 0.000000 
rthumb 7.468414 -31.190523 
lclavicle 0.000000 0.000000 
lhumerus -6.405259 -4.930410 92.009147 
lradius 60.189542 
lwrist -5.061385 
lhand -13.316714 -9.992368 
lfingers 0.000000 
lthumb 12.787893 19.595928 
rfemur -25.308340 -6.262194 16.515325 
rtibia 33.127024 
rfoot -13.859762 -18.148186 
rtoes 25.122631 
lfemur 19.023752 7.594364 -24.557298 
ltibia 27.423166 
lfoot -4.641735 10.432147 
ltoes -17.312611 
5
root -7.789643 16.124694 -23.503855 -6.277016 7.320631 15.347109
lowerback 1.773526 -0.606023 -10.618539 
upperback 6.209765 -0.027436 -2.460672 
thorax 5.608254 -0.255486 3.365836 
lowerneck -7.764501 -12.914165 -15.040215 
upperneck 21.871936 -17.973186 14.184178 
head 11.066526 -7.895910 5.147913 
rclavicle 0.000000 0.000000 
rhumerus -51.410420 -33.078830 -66.752162 
rradius 34.556744 
rwrist -1.930183 
rhand -18.808355 -1.304391 
rfingers 0.000000 
rthumb 7.490108 -31.151739 
lclavicle 0.000000 0.000000 
lhumerus -6.644076 -5.016032 92.015556 
lradius 60.283948 
lwrist -5.012923 
lhand -13.103902 -9.977235 
lfingers 0.000000 
lthumb 12.993113 19.598117 
rfemur -25.195042 -6.667280 17.015290 
rtibia 33.368259 
rfoot -13.628219 -17.835245 
rtoes 24.092815 
lfemur 18.591701 7.990830 -24.021221 
ltibia 28.863564 
lfoot -3.776711 10.653415 
ltoes -15.942028 
6
root -7.804195 16.123315 -23.405769 -6.282059 6.952761 15.168382
lowerback 1.586099 -0.527422 -10.370887 
upperback 6.171425 0.080462 -2.441937 
thorax 5.651157 -0.197242 3.252162 
lowerneck -7.768507 -12.909272 -15.034508 
upperneck 21.952067 -17.970757 14.186075 
head 11.096512 -7.888959 5.150200 
rclavicle 0.000000 0.000000 
rhumerus -51.379969 -33.113920 -66.806651 
rradius 34.431494 
rwrist -1.607364 
rhand -18.656596 -1.153140 
rfingers 0.000000 
rthumb 7.636624 -30.995208 
lclavicle 0.000000 0.000000 
lhumerus -6.843948 -4.903179 91.973151 
lradius 60.271599 
lwrist -5.538619 
lhand -12.922959 -10.122435 
lfingers 0.000000 
lthumb 13.167497 19.441746 
rfemur -25.194207 -6.714356 17.453588 
rtibia 33.598750 
rfoot -13.542090 -17.341736 
rtoes 24.833686 
lfemur 17.988017 8.437818 -23.453286 
ltibia 30.339869 
lfoot -3.056127 11.075526 
ltoes -12.414337 
7
root -7.820407 16.123585 -23.304881 -6.393367 6.601347 14.903577
lowerback 1.534727 -0.435775 -10.070534 
upperback 6.125047 0.182542 -2.387464 
thorax 5.607718 -0.136743 3.147336 
lowerneck -7.667755 -12.897914 -15.045506 
upperneck 21.971357 -17.960931 14.189229 
head 11.084072 -7.886949 5.161585 
rclavicle 0.000000 0.000000 
rhumerus -51.388442 -33.020262 -66.896162 
rradius 34.406074 
rwrist -1.524271 
rhand -18.365437 -1.141926 
rfingers 0.000000 
rthumb 7.917661 -30.973664 
lclavicle 0.000000 0.000000 
lhumerus -7.105342 -4.892668 91.968644 
lradius 60.275205 
lwrist -5.629906 
lhand -12.801087 -10.090525 
lfingers 0.000000 
lthumb 13.284952 19.466085 
rfemur -25.018971 -6.543077 17.883656 
rtibia 33.852771 
rfoot -13.352070 -16.792771 
rtoes 27.442309 
lfemur 17.429677 8.800811 -22.805796 
ltibia 31.910415 
lfoot -2.226225 11.672628 
ltoes -8.287451 
8
root -7.838820 16.120982 -23.203227 -6.531768 6.071613 14.598176
lowerback 1.453598 -0.285258 -9.750091 
upperback 6.112730 0.367416 -2.295589 
thorax 5.608311 -0.038364 3.073128 
lowerneck -7.730520 -12.820405 -15.099167 
upperneck 22.044756 -17.865526 14.308539 
head 11.126517 -7.827847 5.230847 
rclavicle 0.000000 0.000000 
rhumerus -51.230921 -32.879391 -67.024241 
rradius 34.259115 
rwrist -1.323869 
rhand -18.140313 -0.979082 
rfingers 0.000000 
rthumb 8.134958 -30.802477 
lclavicle 0.000000 0.000000 
lhumerus -7.337376 -4.880282 91.955395 
lradius 60.342083 
lwrist -5.546922 
lhand -12.587120 -10.104423 
lfingers 0.000000 
lthumb 13.491173 19.438597 
rfemur -24.816696 -6.177783 18.371409 
rtibia 34.111410 
rfoot -12.196150 -16.406906 
rtoes 29.271489 
lfemur 16.788271 9.319250 -22.054834 
ltibia 33.595422 
lfoot -1.177551 12.261840 
ltoes -3.936122 
9
root -7.853839 16.117792 -23.108804 -6.663080 5.626195 14.281806
lowerback 1.425085 -0.161566 -9.378470 
upperback 6.114700 0.515160 -2.232117 
thorax 5.600044 0.046840 2.939257 
lowerneck -7.765946 -12.801401 -15.063071 
upperneck 22.093280 -17.853650 14.358265 
head 11.151361 -7.808909 5.245833 
rclavicle 0.000000 0.000000 
rhumerus -51.057852 -32.820294 -67.218374 
rradius 34.187520 
rwrist -1.254782 
rhand -18.002567 -1.014570 
rfingers 0.000000 
rthumb 8.267829 -30.832759 
lclavicle 0.000000 0.000000 
lhumerus -7.533489 -4.861294 91.922929 
lradius 60.325050 
lwrist -5.583577 
lhand -12.367390 -10.209098 
lfingers 0.000000 
lthumb 13.702947 19.319758 
rfemur -24.662962 -5.863051 18.812114 
rtibia 34.400248 
rfoot -10.842074 -16.130786 
rtoes 30.194198 
lfemur 16.109614 9.692192 -21.377136 
ltibia 35.283223 
lfoot -0.452778 12.936173 
ltoes 0.949466 
10
root -7.870045 16.115411 -23.016787 -6.735467 5.163004 13.973827
lowerback 1.365285 -0.028976 -9.020623 
upperback 6.085610 0.673082 -2.167870 
thorax 5.577074 0.136472 2.814102 
lowerneck -7.714279 -12.812308 -14.984696 
upperneck 22.081557 -17.872207 14.304904 
head 11.125551 -7.818337 5.213430 
rclavicle 0.000000 0.000000 
rhumerus -50.904478 -32.801785 -67.361248 
rradius 34.081874 
rwrist -1.037380 
rhand -17.899344 -0.902138 
rfingers 0.000000 
rthumb 8.367486 -30.716358 
lclavicle 0.000000 0.000000 
lhumerus -7.771968 -4.941875 91.896756 
lradius 60.296315 
lwrist -5.580930 
lhand -12.500725 -10.167229 
lfingers 0.000000 
lthumb 13.574428 19.370220 
rfemur -24.590625 -5.665928 19.299722 
rtibia 34.703410 
rfoot -9.238744 -15.879351 
rtoes 29.227840 
lfemur 15.450584 10.181082 -20.663300 
ltibia 36.946624 
lfoot 0.295352 13.434217 
ltoes 3.708626 
11
root -7.885859 16.112375 -22.926572 -6.804182 4.674366 13.677746
lowerback 1.290122 0.091517 -8.720346 
upperback 6.077672 0.816740 -2.057520 
thorax 5.588969 0.212888 2.768505 
lowerneck -7.764702 -12.809341 -14.930162 
upperneck 22.108684 -17.849491 14.191871 
head 11.122833 -7.812837 5.164750 
rclavicle 0.000000 0.000000 
rhumerus -50.659332 -32.767719 -67.474680 
rradius 33.947559 
rwrist -0.713595 
rhand -17.760241 -0.747644 
rfingers 0.000000 
rthumb 8.501759 -30.556475 
lclavicle 0.000000 0.000000 
lhumerus -7.980333 -4.627318 91.909073 
lradius 60.151298 
lwrist -6.508763 
lhand -12.293074 -10.364176 
lfingers 0.000000 
lthumb 13.774564 19.159671 
rfemur -24.531588 -5.464573 19.771715 
rtibia 35.036217 
rfoot -7.952494 -15.511912 
rtoes 28.070781 
lfemur 14.791068 10.672952 -19.972491 
ltibia 38.612276 
lfoot 0.912369 13.910204 
ltoes 5.850252 
12
root -7.903037 16.105885 -22.835533 -6.934399 4.143810 13.380526
lowerback 1.277335 0.216210 -8.448326 
upperback 6.085721 0.961287 -1.921724 
thorax 5.583462 0.288710 2.764394 
lowerneck -7.835005 -12.790239 -14.951962 
upperneck 22.159705 -17.797572 14.102199 
head 11.138826 -7.796704 5.141128 
rclavicle 0.000000 0.000000 
rhumerus -50.379486 -32.636806 -67.591839 
rradius 33.857059 
rwrist -0.564370 
rhand -17.401441 -0.698064 
rfingers 0.000000 
rthumb 8.847987 -30.492390 
lclavicle 0.000000 0.000000 
lhumerus -8.220065 -4.311317 91.949987 
lradius 60.090919 
lwrist -6.841717 
lhand -12.060776 -10.488178 
lfingers 0.000000 
lthumb 13.998467 19.020531 
rfemur -24.404465 -5.310054 20.264558 
rtibia 35.410437 
rfoot -7.107061 -15.083684 
rtoes 26.984223 
lfemur 14.138917 11.099315 -19.291027 
ltibia 40.307948 
lfoot 1.367050 14.409709 
ltoes 8.467299 
